<svg id="Layer_1" data-name="Layer 1" xmlns="http://www.w3.org/2000/svg" viewBox="0 0 512 512"><title>stop-button-flat</title><path d="M0,256C0,114.62,114.62,0,256,0S512,114.63,512,256,397.37,512,256,512,0,397.38,0,256Z" fill="#00b6eb"/><path d="M302.8,290.2c0,7.59-4.74,13.77-10.62,13.77H219.8c-5.86,0-10.62-6.18-10.62-13.77V221.79c0-7.58,4.76-13.75,10.62-13.75h72.38c5.89,0,10.62,6.17,10.62,13.75Z" fill="#fff"/><path d="M256,113.7A142.3,142.3,0,1,0,398.29,256,142.29,142.29,0,0,0,256,113.7Zm0,256.52A114.23,114.23,0,1,1,370.23,256,114.23,114.23,0,0,1,256,370.22Z" fill="#fff"/></svg>